HIERARCHY
ROOT Hips
{
	OFFSET 0.000000 0.000000 0.000000
	CHANNELS 6 Xposition Yposition Zposition Xrotation Yrotation Zrotation
	JOINT LeftUpLeg_virtual
	{
		OFFSET 0.000000 0.000000 0.000000
		CHANNELS 3 Xrotation Yrotation Zrotation
		JOINT LeftUpLeg
		{
			OFFSET 10.205400 -3.823500 0.155100
			CHANNELS 3 Xrotation Yrotation Zrotation
			JOINT LeftLeg
			{
				OFFSET 0.708757 -12.982077 0.567790
				CHANNELS 3 Xrotation Yrotation Zrotation
				JOINT LeftFoot
				{
					OFFSET -0.708756 -10.717838 -2.184338
					CHANNELS 3 Xrotation Yrotation Zrotation
					JOINT LeftToeBase
					{
						OFFSET 0.108149 -7.191104 7.560241
						CHANNELS 3 Xrotation Yrotation Zrotation
						JOINT LeftToe_End
						{
							OFFSET 0.070230 0.081724 4.490308
							CHANNELS 3 Xrotation Yrotation Zrotation
							End Site
							{
								OFFSET 0 0 0
							}
						}
					}
				}
			}
		}
	}
	JOINT RightUpLeg_virtual
	{
		OFFSET 0.000000 0.000000 0.000000
		CHANNELS 3 Xrotation Yrotation Zrotation
		JOINT RightUpLeg
		{
			OFFSET -10.205400 -3.823500 0.005500
			CHANNELS 3 Xrotation Yrotation Zrotation
			JOINT RightLeg
			{
				OFFSET -0.708756 -12.982134 0.610632
				CHANNELS 3 Xrotation Yrotation Zrotation
				JOINT RightFoot
				{
					OFFSET 0.708754 -10.717769 -1.945823
					CHANNELS 3 Xrotation Yrotation Zrotation
					JOINT RightToeBase
					{
						OFFSET -0.108140 -7.191069 7.372968
						CHANNELS 3 Xrotation Yrotation Zrotation
						JOINT RightToe_End
						{
							OFFSET -0.070227 0.081735 4.479403
							CHANNELS 3 Xrotation Yrotation Zrotation
							End Site
							{
								OFFSET 0 0 0
							}
						}
					}
				}
			}
		}
	}
	JOINT Spine_virtual
	{
		OFFSET 0.000000 0.000000 0.000000
		CHANNELS 3 Xrotation Yrotation Zrotation
		JOINT Spine
		{
			OFFSET 0.000000 6.876099 0.125700
			CHANNELS 3 Xrotation Yrotation Zrotation
			JOINT Spine1
			{
				OFFSET 0.000000 5.730043 0.104720
				CHANNELS 3 Xrotation Yrotation Zrotation
				JOINT Spine1_split
				{
					OFFSET 0.000000 5.730043 0.104720
					CHANNELS 3 Xrotation Yrotation Zrotation
					JOINT Spine2
					{
						OFFSET 0.000000 5.730043 0.104720
						CHANNELS 3 Xrotation Yrotation Zrotation
						JOINT Neck_virtual
						{
							OFFSET 0.000000 0.000000 0.000000
							CHANNELS 3 Xrotation Yrotation Zrotation
							JOINT Neck
							{
								OFFSET 0.000000 10.314075 0.188496
								CHANNELS 3 Xrotation Yrotation Zrotation
								JOINT Head
								{
									OFFSET 0.000000 7.643700 -2.377400
									CHANNELS 3 Xrotation Yrotation Zrotation
									JOINT HeadTop_End
									{
										OFFSET 0.000000 43.788605 -13.619600
										CHANNELS 3 Xrotation Yrotation Zrotation
										End Site
										{
											OFFSET 0 0 0
										}
									}
								}
							}
						}
						JOINT LeftShoulder_virtual
						{
							OFFSET 0.000000 0.000000 0.000000
							CHANNELS 3 Xrotation Yrotation Zrotation
							JOINT LeftShoulder
							{
								OFFSET 2.196100 4.412489 0.087492
								CHANNELS 3 Xrotation Yrotation Zrotation
								JOINT LeftShoulder_split
								{
									OFFSET 2.196100 4.412489 0.087492
									CHANNELS 3 Xrotation Yrotation Zrotation
									JOINT LeftArm
									{
										OFFSET 8.771219 -2.981674 -0.026999
										CHANNELS 3 Xrotation Yrotation Zrotation
										JOINT LeftForeArm
										{
											OFFSET 8.512804 0.000000 -0.000000
											CHANNELS 3 Xrotation Yrotation Zrotation
											JOINT LeftHand
											{
												OFFSET 18.484802 0.000000 -0.000000
												CHANNELS 3 Xrotation Yrotation Zrotation
												End Site
												{
													OFFSET 0 0 0
												}
											}
										}
									}
								}
							}
						}
						JOINT RightShoulder_virtual
						{
							OFFSET 0.000000 0.000000 0.000000
							CHANNELS 3 Xrotation Yrotation Zrotation
							JOINT RightShoulder
							{
								OFFSET -2.196100 4.412496 0.070690
								CHANNELS 3 Xrotation Yrotation Zrotation
								JOINT RightShoulder_split
								{
									OFFSET -2.196100 4.412496 0.070690
									CHANNELS 3 Xrotation Yrotation Zrotation
									JOINT RightArm
									{
										OFFSET -8.771282 -2.981682 -0.094208
										CHANNELS 3 Xrotation Yrotation Zrotation
										JOINT RightForeArm
										{
											OFFSET -8.494598 0.000000 0.000000
											CHANNELS 3 Xrotation Yrotation Zrotation
											JOINT RightHand
											{
												OFFSET -18.483803 0.000000 0.000001
												CHANNELS 3 Xrotation Yrotation Zrotation
												End Site
												{
													OFFSET 0 0 0
												}
											}
										}
									}
								}
							}
						}
					}
				}
			}
		}
	}
}
MOTION
Frames: 9
Frame Time: 0.03333333
6.940269 20.676146 -20.919004 0.000000 0.000000 0.000000 36.579423 -10.708247 8.099500 -56.443608 -14.943851 0.707869 87.751777 -2.941800 -2.142670 3.924654 -4.433966 -18.631306 -38.585108 3.868421 -23.372701 0.000000 0.000000 0.000000 38.907855 -14.410009 8.952524 -75.413731 -6.446360 -13.105687 101.737157 -9.186054 4.256934 -40.910108 -21.541180 15.810192 -6.727668 14.627798 -22.029416 0.000000 0.000000 0.000000 40.675938 -8.414456 7.692745 34.442359 7.509934 5.755969 1.740210 1.041035 0.823575 0.117300 0.007148 0.154525 0.000000 0.000000 0.000000 3.854658 3.404890 2.022883 -24.069580 4.773445 9.082327 -42.087178 -39.948670 -43.516713 0.000000 0.000000 0.000000 3.641661 1.516715 0.260716 3.921887 -24.004616 -1.305640 3.349597 2.753322 -6.489531 -21.521771 -17.909832 -44.341957 -10.751138 -35.842176 -0.840298 0.000000 0.000000 0.000000 5.690490 2.311681 2.077637 0.706953 22.413081 3.976849 3.693606 0.909966 -1.032619 -53.936289 37.839132 28.916545 -33.428872 21.565897 17.521792 0.000000 0.000000 0.000000 
7.030061 20.856810 -20.671690 0.000000 0.000000 0.000000 36.146918 -12.350532 8.792082 -60.320720 -15.988371 -0.193806 90.850272 -2.460954 -1.981675 7.308855 -3.711009 -19.518977 -36.688412 4.039436 -24.242534 0.000000 0.000000 0.000000 38.394997 -16.362799 9.719986 -74.225592 -6.987612 -12.416354 100.452658 -8.942997 3.171093 -40.874161 -22.444611 16.573524 -6.464544 14.770692 -20.928378 0.000000 0.000000 0.000000 40.208367 -9.787647 8.143209 34.377992 7.543147 5.300929 2.147816 0.963969 0.578413 0.119991 -0.059870 0.165508 0.000000 0.000000 0.000000 4.156763 3.388857 1.773019 -23.815457 5.139187 9.528351 -42.426878 -39.425638 -43.195643 0.000000 0.000000 0.000000 3.877558 1.469568 -0.037110 3.926299 -24.825123 -1.547383 2.498598 2.608330 -6.734254 -19.014410 -15.231436 -43.299349 -13.371816 -38.831340 -2.532974 0.000000 0.000000 0.000000 5.827571 2.231707 1.853076 0.548884 21.678477 4.001018 2.903023 0.558719 -0.576028 -51.589126 37.628865 29.435329 -34.118315 22.765389 18.989671 0.000000 0.000000 0.000000 
7.098219 21.028931 -20.341032 0.000000 0.000000 0.000000 35.730372 -13.701009 9.560172 -64.079004 -16.609294 -0.998593 93.448476 -2.167012 -1.455301 10.091885 -3.299088 -20.766145 -35.438792 4.067330 -24.556205 0.000000 0.000000 0.000000 38.057852 -18.366942 10.745959 -73.171694 -7.532386 -11.998004 99.152572 -8.478386 1.932259 -41.095896 -23.389696 17.373474 -5.910008 14.963976 -20.045048 0.000000 0.000000 0.000000 39.808637 -10.890615 8.678306 34.258600 7.552296 4.781497 2.584886 0.994396 0.326655 0.121578 -0.163190 0.171387 0.000000 0.000000 0.000000 4.582400 3.491292 1.491931 -23.525376 5.674508 9.921270 -42.865318 -38.515198 -42.670695 0.000000 0.000000 0.000000 4.157045 1.519991 -0.331724 3.882426 -25.687546 -1.857787 1.673225 2.256234 -6.652152 -17.073945 -12.727436 -41.901284 -15.657138 -41.300402 -4.126609 0.000000 0.000000 0.000000 6.046967 2.249816 1.616054 0.500048 20.923023 3.715933 2.085267 0.039104 -0.233001 -49.010753 37.756698 29.435534 -34.880977 24.283986 20.729448 0.000000 0.000000 0.000000 
7.138016 21.201132 -19.919477 0.000000 0.000000 0.000000 35.404835 -14.763893 10.361166 -67.829079 -16.895818 -1.299617 95.580554 -2.128296 -0.731805 12.249921 -3.063615 -22.120777 -34.377114 3.917418 -24.445326 0.000000 0.000000 0.000000 37.977040 -20.182683 11.913429 -72.209477 -8.057143 -11.877070 97.847740 -7.703890 0.559921 -41.402216 -24.397484 18.481273 -5.157131 15.186258 -19.377445 0.000000 0.000000 0.000000 39.476038 -11.682394 9.271557 34.085233 7.513900 4.259168 3.018142 1.128863 0.074729 0.132702 -0.284934 0.169034 0.000000 0.000000 0.000000 5.080291 3.696742 1.193904 -23.122176 6.315061 10.231701 -43.620863 -37.288383 -42.105637 0.000000 0.000000 0.000000 4.438514 1.664519 -0.612516 3.809121 -26.541818 -2.156145 0.941112 1.863092 -6.409759 -15.674649 -10.567744 -40.142781 -17.392479 -43.277274 -5.419192 0.000000 0.000000 0.000000 6.321849 2.354421 1.365808 0.558085 20.110787 3.115976 1.279160 -0.491342 0.120685 -46.429369 38.274877 28.935010 -35.661528 25.894524 22.604953 0.000000 0.000000 0.000000 
7.146835 21.403561 -19.382097 0.000000 0.000000 0.000000 35.315029 -15.634458 11.191597 -71.584802 -17.251069 -0.977560 97.213154 -2.275121 -0.079146 14.052582 -2.807924 -23.504488 -33.236175 3.705599 -24.156680 0.000000 0.000000 0.000000 38.061308 -21.513964 13.052086 -71.117705 -8.523869 -11.965895 96.530360 -6.670171 -0.861087 -41.879814 -25.580040 19.834460 -4.163478 15.314602 -18.813910 0.000000 0.000000 0.000000 39.195935 -12.197845 9.903540 33.902996 7.401381 3.779027 3.413642 1.317243 -0.166664 0.137298 -0.387947 0.165938 0.000000 0.000000 0.000000 5.592841 3.945274 0.880691 -22.556568 7.002708 10.446985 -44.744860 -35.928885 -41.582496 0.000000 0.000000 0.000000 4.703833 1.855800 -0.861193 3.738222 -27.298637 -2.360743 0.479058 1.578983 -6.044317 -14.723738 -8.854546 -38.088598 -18.456708 -45.020557 -6.315125 0.000000 0.000000 0.000000 6.588079 2.489179 1.111743 0.685860 19.179173 2.194177 0.733697 -0.764691 0.554788 -44.285212 39.168751 28.249545 -36.426539 27.520914 24.524827 0.000000 0.000000 0.000000 
7.136330 21.644964 -18.717939 0.000000 0.000000 0.000000 35.394283 -16.299890 11.961522 -75.330054 -17.927945 -0.109940 98.494278 -2.386879 0.481919 15.802614 -2.258322 -24.955635 -32.117745 3.514686 -23.700420 0.000000 0.000000 0.000000 38.157453 -22.134879 13.934252 -69.565941 -8.968601 -12.133568 95.086711 -5.544415 -2.225090 -42.971223 -27.054019 20.959188 -2.863152 15.257575 -18.202910 0.000000 0.000000 0.000000 38.869712 -12.530201 10.536561 33.770098 7.156831 3.408033 3.742051 1.491046 -0.386639 0.152024 -0.443282 0.165835 0.000000 0.000000 0.000000 6.069603 4.157890 0.569172 -21.763932 7.679013 10.574496 -46.200233 -34.629018 -41.125013 0.000000 0.000000 0.000000 4.936804 2.029310 -1.067245 3.689722 -27.863808 -2.431609 0.297442 1.467352 -5.603990 -14.215181 -7.752076 -35.841339 -18.861195 -46.792096 -6.808898 0.000000 0.000000 0.000000 6.806747 2.589802 0.858547 0.848065 18.105100 0.987205 0.378749 -0.781822 0.959312 -43.138017 40.253771 27.873995 -37.178178 29.152234 26.431618 0.000000 0.000000 0.000000 
7.098423 21.939062 -17.900255 0.000000 0.000000 0.000000 35.603328 -16.807429 12.647013 -78.635879 -18.843478 1.061370 99.298847 -2.057092 0.836204 17.269862 -1.098166 -25.985364 -30.847136 3.288289 -23.160164 0.000000 0.000000 0.000000 38.125641 -22.117122 14.485151 -67.282179 -9.464772 -12.267598 93.345074 -4.554310 -3.401926 -44.890722 -28.865479 21.448544 -1.493819 14.995294 -17.416856 0.000000 0.000000 0.000000 38.449860 -12.828582 11.201950 33.753736 6.717322 3.163718 4.004578 1.604739 -0.600338 0.152836 -0.454167 0.183084 0.000000 0.000000 0.000000 6.467227 4.279841 0.258209 -20.652156 8.328101 10.614168 -47.837258 -33.741039 -40.699086 0.000000 0.000000 0.000000 5.139611 2.129661 -1.235764 3.670922 -28.204160 -2.357314 0.244020 1.512281 -5.301177 -14.111891 -7.274141 -33.474860 -18.633596 -48.655484 -6.901422 0.000000 0.000000 0.000000 6.951956 2.598765 0.592619 0.999084 16.892337 -0.460473 0.153756 -0.627400 1.357130 -43.235658 41.420818 28.187989 -37.864820 30.777143 28.235970 0.000000 0.000000 0.000000 
7.042528 22.297745 -16.950884 0.000000 0.000000 0.000000 35.732592 -17.072157 13.223212 -81.422603 -19.839493 2.353506 99.326564 -1.380806 1.281098 18.428735 0.364115 -26.977883 -29.710008 2.970677 -22.173890 0.000000 0.000000 0.000000 37.856443 -21.503049 14.735882 -64.178185 -9.970752 -12.347228 91.206658 -3.766704 -4.349447 -47.548710 -30.847579 21.144618 -0.074214 14.558292 -16.447802 0.000000 0.000000 0.000000 37.967502 -13.051125 11.902710 33.922281 6.027168 3.027644 4.204099 1.635052 -0.825308 0.141420 -0.441354 0.192132 0.000000 0.000000 0.000000 6.788286 4.296880 -0.062557 -19.224363 8.916514 10.533904 -49.529298 -33.495070 -40.281389 0.000000 0.000000 0.000000 5.320734 2.136622 -1.393434 3.679466 -28.334869 -2.172525 0.250151 1.630030 -5.031341 -14.513599 -7.489689 -31.008034 -17.759383 -50.301488 -6.525366 0.000000 0.000000 0.000000 7.025877 2.511814 0.309515 1.117499 15.595181 -2.126119 0.027203 -0.368223 1.473360 -44.619645 42.394059 29.341267 -38.387999 32.275396 29.798811 0.000000 0.000000 0.000000 
6.940348 22.727463 -15.913378 0.000000 0.000000 0.000000 35.572291 -16.986961 13.715281 -83.556313 -20.367740 3.720814 98.049435 -0.484813 2.047783 18.887112 1.767745 -27.882970 -28.623988 2.353579 -20.369844 0.000000 0.000000 0.000000 37.275552 -20.532297 14.846471 -60.445549 -10.373958 -12.473082 88.539134 -3.029468 -5.125309 -50.401786 -32.723703 20.483370 1.481812 14.039760 -15.419888 0.000000 0.000000 0.000000 37.362965 -13.066369 12.563997 34.310055 5.086971 2.946816 4.370060 1.602792 -1.097702 0.129959 -0.425668 0.188245 0.000000 0.000000 0.000000 7.014717 4.245349 -0.392664 -17.444284 9.396631 10.294238 -51.129696 -33.989064 -39.853163 0.000000 0.000000 0.000000 5.490878 2.051274 -1.588767 3.705197 -28.281191 -1.893795 0.204386 1.674208 -4.706562 -15.391573 -8.441907 -28.378866 -16.252975 -51.162755 -5.589795 0.000000 0.000000 0.000000 7.075154 2.368983 -0.007261 1.220803 14.367248 -3.976023 0.151669 -0.029483 1.403028 -46.864773 42.978487 31.063417 -38.525856 33.432314 30.861387 0.000000 0.000000 0.000000 
